<?xml version="1.0" ?>
<!-- Uploaded to: SVG Repo, www.svgrepo.com, Generator: SVG Repo Mixer Tools -->
<svg width="800px" height="800px" viewBox="0 0 120 120" id="Layer_1" version="1.1" xml:space="preserve" xmlns="http://www.w3.org/2000/svg" xmlns:xlink="http://www.w3.org/1999/xlink">
<style type="text/css">
	.st0{fill:#FFB8BE;}
	.st1{fill:#FF6778;}
	.st2{fill:#FFFFFF;}
</style>
<g>
<path class="st0" d="M85.1,62.4l-4.6,0.6c-0.4,0.1-0.8-0.3-0.8-0.7v-4.4c0-0.4,0.4-0.8,0.8-0.7l4.6,0.6c0.4,0,0.6,0.3,0.6,0.7v3.3   C85.7,62,85.4,62.3,85.1,62.4z"/>
<g>
<path class="st0" d="M47.5,43h22c2.2,0,3.8-1.9,3.6-4l-2.8-22.9c-0.2-1.8-1.7-3.2-3.6-3.2H50.2c-1.8,0-3.3,1.4-3.6,3.2L43.9,39    C43.7,41.2,45.3,43,47.5,43z"/>
<path class="st0" d="M69.5,77h-22c-2.2,0-3.8,1.9-3.6,4l2.8,22.9c0.2,1.8,1.7,3.2,3.6,3.2h16.5c1.8,0,3.3-1.4,3.6-3.2L73.1,81    C73.3,78.8,71.7,77,69.5,77z"/>
</g>
<path class="st1" d="M58.5,84.9L58.5,84.9c-13.8,0-24.9-11.2-24.9-24.9v0c0-13.8,11.2-24.9,24.9-24.9h0c13.8,0,24.9,11.2,24.9,24.9   v0C83.4,73.8,72.3,84.9,58.5,84.9z"/>
<path class="st2" d="M58.5,81.5L58.5,81.5C46.6,81.5,37,71.9,37,60v0c0-11.9,9.6-21.5,21.5-21.5h0C70.4,38.5,80,48.1,80,60v0   C80,71.9,70.4,81.5,58.5,81.5z"/>
<g>
<path class="st1" d="M51.7,68.4c-0.7,0-1.4-0.3-1.9-0.9c-0.9-1-0.8-2.6,0.2-3.5l5.9-5.2V48.6c0-1.4,1.1-2.5,2.5-2.5    s2.5,1.1,2.5,2.5V60c0,0.7-0.3,1.4-0.9,1.9l-6.8,5.9C52.9,68.2,52.3,68.4,51.7,68.4z"/>
</g>
<circle class="st0" cx="58.5" cy="60" r="4.2"/>
</g>
</svg>